<svg width="293" height="231" viewBox="0 0 293 231" fill="none" xmlns="http://www.w3.org/2000/svg">
<path d="M-7.16605 159.4H323.844V159.565H-7.16605V159.4Z" fill="#EBEBEB"/>
<path d="M234.379 170.052H256.305V170.217H234.379V170.052Z" fill="#EBEBEB"/>
<path d="M181.715 165.04H210.546V165.206H181.715V165.04Z" fill="#EBEBEB"/>
<path d="M256.967 163.908H289.115V164.074H256.967V163.908Z" fill="#EBEBEB"/>
<path d="M137.22 166.146H159.921V166.311H137.22V166.146Z" fill="#EBEBEB"/>
<path d="M26.0011 166.146H30.9265V166.311H26.0011V166.146Z" fill="#EBEBEB"/>
<path d="M99.1743 166.146H131.329V166.311H99.1743V166.146Z" fill="#EBEBEB"/>
<path d="M45.5969 168.939H107.615V169.105H45.5969V168.939Z" fill="#EBEBEB"/>
<path d="M248.606 134.223C235.405 126.199 229.341 118.335 213.168 130.132C197.789 141.386 158.339 159.4 158.339 159.4H292.729C292.729 159.4 261.813 142.253 248.606 134.223Z" fill="#F2F2F2"/>
<path d="M248.606 134.223C240.251 129.139 234.75 124.121 227.739 124.121C229.235 126.504 242.25 133.733 242.343 138.685C242.442 144.365 233.2 151.926 238.245 159.393H292.729C292.729 159.393 261.813 142.253 248.606 134.223Z" fill="#E6E6E6"/>
<path d="M93.7987 122.724C118.651 111.026 130.064 99.553 160.497 116.766C189.454 133.137 263.68 159.4 263.68 159.4H10.7879C10.7879 159.4 68.9663 134.422 93.7987 122.724Z" fill="#E6E6E6"/>
<path d="M93.8054 122.724C109.535 115.316 119.882 108.007 133.076 108C130.256 111.476 105.761 122.009 105.596 129.231C105.404 137.507 122.808 148.523 113.308 159.4H10.7682C10.7682 159.4 68.9664 134.422 93.8054 122.724Z" fill="#E6E6E6"/>
<path d="M218.219 102.863L217.894 103.128C216.789 99.1228 213.743 98.0569 212.108 100.606L212.042 100.321C212.042 100.195 211.91 100.116 211.817 100.149C211.764 100.17 211.721 100.21 211.697 100.262C211.674 100.314 211.672 100.373 211.691 100.427L211.837 101.089C211.314 102.258 211.041 103.523 211.036 104.803C210.932 108.239 210.128 111.618 208.672 114.733C208.633 113.336 208.586 111.953 208.546 110.589L208.798 109.927C208.818 109.872 208.82 109.812 208.803 109.756C208.787 109.7 208.752 109.651 208.705 109.616C208.678 109.594 208.644 109.582 208.609 109.582C208.574 109.582 208.54 109.594 208.513 109.616C208.454 107.769 208.394 105.955 208.341 104.2L208.752 103.459C208.78 103.407 208.791 103.348 208.783 103.289C208.775 103.23 208.747 103.176 208.705 103.135C208.688 103.116 208.666 103.102 208.641 103.094C208.617 103.085 208.591 103.083 208.566 103.087C208.54 103.091 208.516 103.101 208.496 103.116C208.475 103.131 208.458 103.151 208.447 103.174L208.315 103.419C208.215 100.374 208.116 97.4611 208.023 94.813L208.639 94.151C208.675 94.1046 208.695 94.0475 208.695 93.9888C208.695 93.9301 208.675 93.873 208.639 93.8266C208.628 93.8035 208.611 93.7835 208.591 93.7683C208.57 93.753 208.546 93.743 208.52 93.7391C208.495 93.7352 208.469 93.7375 208.445 93.7458C208.421 93.7542 208.399 93.7682 208.381 93.7869L207.99 94.1973C207.931 92.5688 207.871 91.013 207.818 89.5632L208.335 88.7754C208.37 88.7285 208.388 88.6716 208.388 88.6132C208.388 88.5548 208.37 88.4979 208.335 88.451C208.32 88.4305 208.301 88.4138 208.278 88.4023C208.256 88.3908 208.231 88.3847 208.206 88.3847C208.18 88.3847 208.155 88.3908 208.133 88.4023C208.111 88.4138 208.091 88.4305 208.076 88.451L207.818 88.8416C207.633 83.9824 207.461 80.1294 207.308 77.6667C207.295 75.5041 206.561 73.4077 205.223 71.7085L205.6 71.2716C205.636 71.2252 205.656 71.1681 205.656 71.1094C205.656 71.0507 205.636 70.9936 205.6 70.9472C205.586 70.9267 205.566 70.91 205.544 70.8985C205.521 70.8869 205.497 70.8809 205.471 70.8809C205.446 70.8809 205.421 70.8869 205.399 70.8985C205.376 70.91 205.357 70.9267 205.342 70.9472L204.938 71.4172C204.59 71.0335 204.169 70.723 203.7 70.5036C203.23 70.2843 202.722 70.1605 202.204 70.1395C201.614 70.0988 201.021 70.1819 200.465 70.3837C199.909 70.5855 199.401 70.9015 198.974 71.3113L198.888 71.1326C198.879 71.1082 198.866 71.086 198.848 71.0675C198.83 71.0491 198.808 71.0349 198.784 71.026C198.76 71.0171 198.734 71.0137 198.708 71.0161C198.683 71.0185 198.658 71.0266 198.636 71.0399C198.592 71.0788 198.563 71.1311 198.552 71.1886C198.541 71.2461 198.55 71.3055 198.576 71.3576L198.709 71.6224C197.808 72.7545 197.173 74.6876 196.988 77.9315C196.888 79.6527 196.935 83.2277 197.087 88.0935L196.882 87.8022C196.867 87.7804 196.847 87.7625 196.824 87.7501C196.801 87.7377 196.775 87.7312 196.749 87.7312C196.723 87.7312 196.697 87.7377 196.674 87.7501C196.651 87.7625 196.631 87.7804 196.617 87.8022C196.583 87.8495 196.565 87.9062 196.565 87.9644C196.565 88.0226 196.583 88.0793 196.617 88.1266L197.113 88.835C197.173 90.6688 197.246 92.6747 197.332 94.8262C196.776 94.2503 196.173 93.575 195.558 92.8071L195.518 91.8405C195.522 91.7839 195.504 91.7279 195.469 91.6837C195.433 91.6395 195.382 91.6104 195.326 91.6022C195.22 91.6022 195.147 91.7081 195.147 91.8405V92.3106C194.015 90.8351 193.026 89.2544 192.195 87.5904L192.572 87.0144C192.601 86.9637 192.614 86.9051 192.608 86.8469C192.602 86.7886 192.578 86.7337 192.539 86.69C192.525 86.6681 192.506 86.6501 192.483 86.6376C192.461 86.6251 192.436 86.6185 192.41 86.6185C192.384 86.6185 192.358 86.6251 192.336 86.6376C192.313 86.6501 192.294 86.6681 192.281 86.69L191.983 87.1402C190.648 84.3769 189.754 81.4216 189.335 78.3817C189.187 77.0316 188.773 75.7243 188.117 74.5353L188.441 73.3569C188.456 73.3001 188.452 73.24 188.431 73.1853C188.409 73.1306 188.371 73.0841 188.322 73.0524C188.298 73.0432 188.272 73.0394 188.247 73.0414C188.221 73.0433 188.197 73.0509 188.174 73.0636C188.152 73.0762 188.133 73.0937 188.119 73.1147C188.104 73.1356 188.094 73.1596 188.09 73.1848L187.838 74.1116C186.806 72.6552 185.455 72.1984 184.257 72.6221L184.085 72.1587C184.038 72.0395 183.933 71.9799 183.84 72.0329C183.792 72.0653 183.757 72.1136 183.741 72.1694C183.725 72.2251 183.73 72.2847 183.754 72.3374L183.919 72.7677C182.231 73.635 180.973 76.3426 181.642 80.573C181.642 80.712 181.688 80.851 181.715 80.9834L181.668 80.9503C181.65 80.9321 181.627 80.9189 181.602 80.9118C181.578 80.9048 181.551 80.9043 181.526 80.9102C181.501 80.9162 181.478 80.9285 181.459 80.9459C181.439 80.9634 181.425 80.9854 181.417 81.0099C181.391 81.0632 181.383 81.1235 181.393 81.1819C181.404 81.2402 181.433 81.2937 181.476 81.3343L181.821 81.6123C182.373 84.9114 183.26 88.1455 184.469 91.2646L184.403 91.2183C184.381 91.2051 184.356 91.1972 184.33 91.1952C184.305 91.1932 184.279 91.1972 184.255 91.2069C184.232 91.2165 184.21 91.2315 184.193 91.2507C184.176 91.2699 184.164 91.2928 184.158 91.3175C184.137 91.3735 184.135 91.4345 184.152 91.4917C184.168 91.5489 184.203 91.5993 184.25 91.6353L184.76 91.9531C186.746 96.5872 189.699 100.791 194.101 102.857C194.088 102.902 194.088 102.95 194.101 102.996C194.108 103.042 194.13 103.084 194.164 103.116C194.197 103.149 194.24 103.169 194.287 103.174H194.333L194.611 103.088C195.591 103.503 196.615 103.805 197.663 103.989C197.742 105.862 197.835 107.802 197.928 109.795L197.881 109.755C197.862 109.738 197.839 109.727 197.814 109.721C197.789 109.716 197.763 109.716 197.738 109.723C197.714 109.729 197.691 109.741 197.672 109.758C197.653 109.776 197.639 109.797 197.63 109.821C197.607 109.875 197.6 109.936 197.612 109.994C197.624 110.051 197.653 110.104 197.696 110.145L197.954 110.351C198.126 113.979 198.312 117.779 198.504 121.678L198.272 121.353C198.26 121.331 198.243 121.311 198.222 121.297C198.201 121.282 198.177 121.273 198.151 121.27C198.126 121.266 198.1 121.269 198.076 121.278C198.052 121.287 198.031 121.301 198.014 121.32C197.978 121.368 197.959 121.426 197.959 121.486C197.959 121.545 197.978 121.603 198.014 121.651L198.543 122.413C198.947 130.536 199.391 139.069 199.814 147.417L199.576 147.027C199.564 147.003 199.547 146.983 199.527 146.968C199.506 146.952 199.482 146.941 199.456 146.936C199.431 146.931 199.405 146.932 199.38 146.938C199.354 146.945 199.331 146.957 199.311 146.974C199.277 147.022 199.258 147.08 199.258 147.139C199.258 147.198 199.277 147.256 199.311 147.305L199.874 148.212C200.073 152.018 200.265 155.785 200.45 159.466H209.976C209.93 157.923 209.884 156.361 209.837 154.832L210.109 154.56C210.145 154.514 210.164 154.457 210.164 154.398C210.164 154.339 210.145 154.282 210.109 154.236C210.098 154.212 210.082 154.192 210.062 154.176C210.041 154.16 210.017 154.149 209.992 154.145C209.967 154.14 209.94 154.142 209.916 154.15C209.891 154.157 209.869 154.171 209.851 154.19L209.791 154.243C209.573 146.808 209.347 139.188 209.129 131.734C209.089 130.297 209.05 128.861 209.003 127.444C214.114 124.723 216.669 118.666 217.696 112.833L218.225 112.396C218.266 112.354 218.292 112.299 218.299 112.241C218.307 112.182 218.294 112.123 218.265 112.072C218.256 112.048 218.241 112.027 218.222 112.01C218.204 111.993 218.181 111.981 218.157 111.974C218.133 111.967 218.107 111.965 218.082 111.97C218.057 111.974 218.034 111.984 218.013 111.999L217.808 112.171C218.09 110.362 218.242 108.534 218.265 106.703C218.278 105.691 218.176 104.68 217.96 103.691L218.377 103.346C218.42 103.307 218.448 103.253 218.456 103.196C218.464 103.138 218.453 103.079 218.424 103.029C218.425 103.003 218.419 102.978 218.409 102.955C218.398 102.931 218.382 102.911 218.362 102.895C218.342 102.879 218.319 102.868 218.294 102.862C218.269 102.857 218.243 102.857 218.219 102.863Z" fill="#999999"/>
<path d="M58.9566 131.198C58.9566 131.072 58.8441 130.999 58.7448 131.032L58.5462 131.092C58.6256 128.311 56.8514 127.186 55.5737 128.655L55.0308 128.298C55.0098 128.285 54.986 128.277 54.9612 128.274C54.9364 128.272 54.9115 128.275 54.8883 128.284C54.8651 128.293 54.8443 128.308 54.8277 128.326C54.8111 128.345 54.799 128.367 54.7925 128.391C54.7665 128.441 54.7588 128.499 54.7709 128.555C54.783 128.61 54.814 128.66 54.8587 128.695L55.3221 129C54.9928 129.529 54.7577 130.111 54.627 130.721C54.4769 131.337 54.2868 131.943 54.0577 132.535L54.0246 132.422C54.0198 132.398 54.0096 132.374 53.9945 132.354C53.9795 132.334 53.96 132.318 53.9377 132.306C53.9154 132.295 53.8908 132.289 53.8657 132.288C53.8406 132.288 53.8157 132.293 53.7928 132.303C53.7458 132.335 53.7106 132.381 53.6927 132.435C53.6747 132.489 53.675 132.547 53.6935 132.601L53.8392 133.078C53.2759 134.401 52.5123 135.629 51.5751 136.719V136.196C51.5751 136.07 51.489 135.977 51.3897 135.991C51.3378 136.003 51.2922 136.034 51.2617 136.078C51.2312 136.122 51.2179 136.176 51.2242 136.229L51.2639 137.096C50.7702 137.635 50.232 138.131 49.6552 138.579C49.8538 136.5 50.0657 134.468 50.2775 132.502L50.827 132.038C50.8672 131.999 50.8939 131.947 50.9034 131.891C50.9129 131.836 50.9047 131.778 50.88 131.727C50.8713 131.704 50.857 131.683 50.8384 131.667C50.8198 131.65 50.7975 131.638 50.7733 131.633C50.7491 131.627 50.7239 131.627 50.6998 131.633C50.6757 131.639 50.6534 131.651 50.635 131.668L50.3437 131.913C50.549 130.006 50.7476 128.172 50.9395 126.431L51.2705 126.074C51.3044 126.029 51.3227 125.974 51.3227 125.918C51.3227 125.862 51.3044 125.807 51.2705 125.762C51.2574 125.742 51.2392 125.725 51.2178 125.713C51.1964 125.702 51.1725 125.696 51.1481 125.696C51.1237 125.696 51.0997 125.702 51.0783 125.713C51.0569 125.725 51.0388 125.742 51.0256 125.762L50.9859 125.802C51.0719 125.061 51.1514 124.332 51.2242 123.637C51.2242 123.512 51.2573 123.392 51.2705 123.273C56.4475 122.002 58.5528 115.667 58.9963 111.297C58.9963 110.999 59.0361 110.721 59.0361 110.45C59.0711 110.447 59.1047 110.435 59.1328 110.413C59.1609 110.392 59.1825 110.364 59.1949 110.331C59.2178 110.279 59.2231 110.221 59.21 110.166C59.1968 110.111 59.1659 110.062 59.1221 110.026L58.9963 109.94C58.6984 106.379 55.5538 106.107 55.0242 110.265C54.8885 111.349 54.6332 112.414 54.2629 113.442C54.2473 113.412 54.2215 113.388 54.19 113.375C54.1586 113.361 54.1234 113.359 54.0908 113.369C54.0407 113.392 54.0002 113.432 53.9761 113.481C53.952 113.531 53.9457 113.587 53.9583 113.641L54.0312 114.051C53.4808 115.396 52.7382 116.654 51.8266 117.785C52.0599 115.868 52.1683 113.937 52.151 112.006L52.3761 111.781C52.416 111.74 52.4415 111.688 52.4487 111.632C52.4558 111.575 52.4443 111.518 52.4159 111.469C52.4051 111.448 52.3893 111.429 52.3698 111.414C52.3503 111.4 52.3276 111.39 52.3036 111.386C52.2796 111.383 52.2551 111.384 52.232 111.392C52.2089 111.399 52.188 111.412 52.1709 111.43L52.1047 111.496C51.873 109.596 51.3434 108.517 50.6416 107.928C50.6799 107.922 50.715 107.903 50.7409 107.875L51.2044 107.378C51.2378 107.332 51.2557 107.276 51.2557 107.219C51.2557 107.162 51.2378 107.107 51.2044 107.06C51.1912 107.04 51.173 107.023 51.1516 107.011C51.1302 107 51.1062 106.994 51.0819 106.994C51.0575 106.994 51.0335 107 51.0121 107.011C50.9907 107.023 50.9726 107.04 50.9594 107.06L50.496 107.557C50.4665 107.591 50.4462 107.632 50.4369 107.676C50.4277 107.72 50.4298 107.765 50.443 107.808C49.8421 107.424 49.1363 107.237 48.4239 107.272C47.5509 107.332 46.7306 107.711 46.12 108.338L45.9413 107.921C45.9353 107.897 45.9234 107.874 45.9066 107.856C45.8899 107.837 45.8687 107.823 45.8452 107.814C45.8216 107.806 45.7963 107.803 45.7715 107.807C45.7467 107.81 45.7231 107.82 45.703 107.835C45.6591 107.871 45.6283 107.92 45.6151 107.975C45.602 108.03 45.6072 108.088 45.6301 108.139L45.8354 108.623C44.9822 109.519 44.4876 110.696 44.4451 111.933C44.4451 112.635 44.3789 113.528 44.326 114.581C44.281 114.583 44.2384 114.602 44.2068 114.634C44.1743 114.681 44.1569 114.736 44.1569 114.793C44.1569 114.85 44.1743 114.905 44.2068 114.952L44.326 115.144C44.2796 116.15 44.22 117.295 44.1538 118.553C44.1396 118.535 44.1214 118.521 44.1008 118.511C44.0802 118.501 44.0576 118.496 44.0347 118.496C44.0118 118.496 43.9892 118.501 43.9685 118.511C43.9479 118.521 43.9298 118.535 43.9155 118.553C43.883 118.6 43.8657 118.655 43.8657 118.712C43.8657 118.769 43.883 118.824 43.9155 118.871L44.1472 119.235C44.0347 121.334 43.9089 123.717 43.7566 126.319C43.3295 125.801 42.9547 125.242 42.6378 124.65L42.8166 124.419C42.8499 124.372 42.8679 124.317 42.8679 124.26C42.8679 124.203 42.8499 124.147 42.8166 124.101C42.8034 124.08 42.7852 124.063 42.7638 124.052C42.7424 124.04 42.7185 124.034 42.6941 124.034C42.6697 124.034 42.6457 124.04 42.6243 124.052C42.6029 124.063 42.5848 124.08 42.5716 124.101L42.4392 124.26C42.3465 124.061 42.2472 123.856 42.1545 123.644C41.2277 121.413 39.7514 121.466 39.0364 122.704L38.8444 122.413C38.8305 122.392 38.8117 122.375 38.7898 122.364C38.7679 122.352 38.7434 122.346 38.7186 122.346C38.6939 122.346 38.6694 122.352 38.6475 122.364C38.6256 122.375 38.6068 122.392 38.5929 122.413C38.5595 122.459 38.5415 122.514 38.5415 122.572C38.5415 122.629 38.5595 122.684 38.5929 122.73L38.8643 123.134C38.5318 124.224 38.5951 125.397 39.043 126.444C39.8573 128.589 41.3469 131.078 43.4322 132.363C43.4322 132.846 43.3726 133.336 43.3462 133.826C43.2469 135.56 43.141 137.348 43.0284 139.168C42.9941 139.152 42.9548 139.15 42.919 139.162C42.8831 139.175 42.8535 139.201 42.8364 139.235C42.802 139.28 42.7835 139.336 42.7835 139.393C42.7835 139.451 42.802 139.507 42.8364 139.552L42.9821 139.711C42.7239 144.074 42.4392 148.629 42.1545 153.163L42.0618 153.084C42.0428 153.067 42.0201 153.056 41.9955 153.049C41.971 153.043 41.9453 153.043 41.9207 153.049C41.8961 153.055 41.8733 153.067 41.8541 153.083C41.8349 153.099 41.8199 153.12 41.8103 153.144C41.7837 153.194 41.7739 153.251 41.7823 153.307C41.7906 153.363 41.8166 153.415 41.8566 153.455L42.1214 153.686C41.9957 155.62 41.8699 157.546 41.7441 159.453H48.2385C48.3577 154.686 48.6887 149.635 49.1058 144.663C49.1455 144.16 49.1852 143.65 49.2315 143.147C49.9358 143.127 50.6327 142.998 51.297 142.763L51.6214 143.273C51.636 143.297 51.6564 143.317 51.6807 143.331C51.705 143.344 51.7325 143.352 51.7605 143.352C51.7814 143.353 51.8022 143.349 51.8216 143.341C51.8409 143.333 51.8584 143.321 51.873 143.306C51.9055 143.259 51.9229 143.204 51.9229 143.147C51.9229 143.09 51.9055 143.035 51.873 142.988L51.6413 142.624C54.68 141.36 56.6462 138.036 57.7186 134.892C57.7447 134.914 57.777 134.928 57.8113 134.931C57.848 134.93 57.8831 134.916 57.9106 134.892C57.9508 134.852 57.9775 134.8 57.987 134.745C57.9965 134.689 57.9883 134.631 57.9636 134.581L57.8775 134.402C58.0827 133.74 58.2483 133.111 58.374 132.508C58.4373 132.211 58.4837 131.911 58.5131 131.608L58.8176 131.522C58.849 131.511 58.8778 131.494 58.9021 131.471C58.9265 131.449 58.9458 131.421 58.9589 131.391C58.972 131.36 58.9786 131.327 58.9782 131.294C58.9778 131.261 58.9704 131.228 58.9566 131.198Z" fill="#999999"/>
<path d="M152.138 38.1964C148.841 24.2308 157.491 10.2374 171.456 6.94119C185.422 3.64501 199.415 12.2943 202.711 26.2598C206.008 40.2254 197.358 54.2188 183.393 57.515C169.427 60.8112 155.434 52.1619 152.138 38.1964Z" fill="white"/>
<path d="M147.501 230.571C214.665 230.571 269.113 223.851 269.113 215.562C269.113 207.272 214.665 200.553 147.501 200.553C80.3366 200.553 25.8892 207.272 25.8892 215.562C25.8892 223.851 80.3366 230.571 147.501 230.571Z" fill="#E6E6E6"/>
<path d="M121.87 129.161L213.917 129.807V205.832L187.891 224.14H121.87H80.8491V142.66L121.87 129.161Z" fill="#999999"/>
<path d="M121.87 129.161L213.917 129.807V205.832L187.891 224.14H121.87M121.87 129.161L80.8491 142.66V224.14H121.87M121.87 129.161V224.14" stroke="black" stroke-width="0.472389"/>
<path d="M122.02 153.633L119.653 130.544L139.974 128.461L142.341 151.55C137.464 160.135 128.158 161.089 122.02 153.633Z" fill="white" stroke="black" stroke-width="0.295243"/>
<path d="M145.78 109.006C153.446 121.82 153.605 135.344 144.534 142.334C143.9 142.823 143.182 143.195 142.423 143.45C134.005 146.274 125.516 144.008 119.136 136.359C109.991 124.63 107.549 118.585 110.851 109.318L145.78 109.006Z" fill="white" stroke="black" stroke-width="0.295243"/>
<path d="M142.5 89.0416C160.82 99.433 156.983 123.365 122.506 118.097C125.006 120.862 126.831 123.634 126.194 127.822L122.593 127.854C122.572 125.465 121.717 123.68 119.844 122.303C116.899 120.138 114.858 121.053 114.008 122.554C113.066 124.215 113.375 128.733 118.788 130.079C118.07 132.443 118.643 134.644 119.816 136.993C105.244 141.562 101.128 116.713 107.152 105.513C107.523 104.823 108.106 104.271 108.811 103.93C120.305 98.3703 141.54 103.725 142.5 89.0416Z" fill="#2B2B2B" stroke="black" stroke-width="0.297605"/>
<path d="M119.985 128.77C120.323 127 120.06 125.538 119.257 124.443M115.562 122.375C117.245 122.696 118.495 123.403 119.257 124.443M119.257 124.443C117.64 123.506 115.119 124.218 116.752 126.961" stroke="black" stroke-width="0.472389" stroke-linecap="round"/>
<path d="M127.577 123.592C130.522 124.513 133.104 123.865 135.604 121.129" stroke="black" stroke-width="0.472389" stroke-linecap="round"/>
<path d="M144.171 139.065C141.098 137.594 138.175 137.894 135.012 140.49" stroke="black" stroke-width="0.297605" stroke-linecap="round"/>
<path d="M142.491 120.611C144.179 122.61 146.322 123.322 149.356 122.502" stroke="black" stroke-width="0.472389" stroke-linecap="round"/>
<circle cx="2.08611" cy="2.08611" r="2.08611" transform="matrix(-0.891456 0.453108 0.453108 0.891456 134.582 124.89)" fill="black"/>
<circle cx="2.08611" cy="2.08611" r="2.08611" transform="matrix(-0.891456 0.453108 0.453108 0.891456 146.871 123.703)" fill="black"/>
<path d="M140.636 126.848L143.868 132.869C144.049 133.206 143.999 133.628 143.71 133.879C142.665 134.783 141.629 134.92 139.394 134.314" stroke="black" stroke-width="0.295243" stroke-linecap="round"/>
<circle cx="0.756488" cy="0.756488" r="0.756488" transform="matrix(-0.99074 0.135774 0.135774 0.99074 133.39 126.298)" fill="white"/>
<circle cx="0.349949" cy="0.349949" r="0.349949" transform="matrix(-0.99074 0.135774 0.135774 0.99074 134.308 127.847)" fill="white"/>
<circle cx="0.756488" cy="0.756488" r="0.756488" transform="matrix(-0.99074 0.135774 0.135774 0.99074 145.907 124.936)" fill="white"/>
<circle cx="0.349949" cy="0.349949" r="0.349949" transform="matrix(-0.99074 0.135774 0.135774 0.99074 146.824 126.484)" fill="white"/>
<path d="M80.8665 142.776H187.926L213.913 130.018V205.814L187.926 224.118H80.8665V142.776Z" fill="#FF8766"/>
<path d="M187.926 142.776H80.8665V224.118H187.926M187.926 142.776V224.118M187.926 142.776L213.913 130.018V205.814L187.926 224.118" stroke="black" stroke-width="0.472389"/>
<path d="M187.927 142.776V224.118L213.913 205.814V130.018L187.927 142.776Z" fill="#FF7A57" stroke="black" stroke-width="0.472389"/>
<path d="M175.474 167.821L187.902 142.853H80.7143L63.417 167.821H175.474Z" fill="#E9E6E6" stroke="black" stroke-width="0.472389"/>
<path d="M204.034 166.259L187.881 142.926L214.169 129.907L228.922 150.095L204.034 166.259Z" fill="#E9E6E6" stroke="black" stroke-width="0.472389"/>
<path d="M175.476 142.807H177.949C175.215 137.846 163.507 137.893 160.047 140.581C156.681 143.632 155.433 147.79 154.292 152.987C154.639 154.416 156.743 154.521 158.101 152.987C158.443 154.695 160.513 155.147 161.811 153.305C162.16 154.987 164.591 155.214 165.986 152.987C166.834 155.078 168.262 155.123 169.708 153.305C170.463 149.353 171.674 146.926 173.933 143.616C174.28 143.107 174.86 142.807 175.476 142.807Z" fill="white"/>
<path d="M165.986 152.987C166.834 155.078 168.262 155.123 169.708 153.305C170.463 149.353 171.674 146.926 173.933 143.616C174.28 143.107 174.86 142.807 175.476 142.807H177.949C175.215 137.846 163.507 137.893 160.047 140.581C156.681 143.632 155.433 147.79 154.292 152.987C154.639 154.416 156.743 154.521 158.101 152.987M165.986 152.987C166.96 148.958 167.778 146.807 170.123 143.307M165.986 152.987C164.591 155.214 162.16 154.987 161.811 153.305M161.811 153.305C162.749 149.179 163.561 146.902 165.986 143.114M161.811 153.305C160.513 155.147 158.443 154.695 158.101 152.987M158.101 152.987C159.194 148.47 160.17 146.358 162.176 143.114" stroke="black" stroke-width="0.472389" stroke-linecap="round"/>
<path d="M97.5267 142.801H95.0538C97.7876 137.839 109.496 137.887 112.955 140.575C116.322 143.626 117.569 147.784 118.711 152.981C118.364 154.409 116.26 154.515 114.902 152.981C114.56 154.689 112.489 155.141 111.191 153.299C110.842 154.981 108.412 155.208 107.016 152.981C106.169 155.071 104.741 155.117 103.295 153.299C102.54 149.347 101.329 146.92 99.0698 143.61C98.7225 143.101 98.1428 142.801 97.5267 142.801Z" fill="white"/>
<path d="M107.016 152.981C106.169 155.071 104.741 155.117 103.295 153.299C102.54 149.347 101.329 146.92 99.0698 143.61C98.7225 143.101 98.1428 142.801 97.5267 142.801H95.0538C97.7876 137.839 109.496 137.887 112.955 140.575C116.322 143.626 117.569 147.784 118.711 152.981C118.364 154.409 116.26 154.515 114.902 152.981M107.016 152.981C106.043 148.951 105.225 146.801 102.879 143.301M107.016 152.981C108.412 155.208 110.842 154.981 111.191 153.299M111.191 153.299C110.254 149.172 109.442 146.896 107.016 143.108M111.191 153.299C112.489 155.141 114.56 154.689 114.902 152.981M114.902 152.981C113.808 148.464 112.832 146.352 110.826 143.108" stroke="black" stroke-width="0.472389" stroke-linecap="round"/>
</svg>
