<svg width="291" height="270" viewBox="0 0 291 270" fill="none" xmlns="http://www.w3.org/2000/svg">
<path d="M1.7928 68.2202H71.7935V275.355H1.7928V68.2202Z" fill="#EBEBEB"/>
<path d="M-1.59628 64.6203H75.1919V68.211H-1.59628V64.6203Z" fill="#DBDBDB"/>
<path d="M-21.9222 68.2202H1.79297V275.355H-21.9222V68.2202Z" fill="#DBDBDB"/>
<path d="M9.30423 229.024H64.2642V197.88H9.30423V229.024ZM64.0535 228.795H9.53323V198.155H64.0535V228.795Z" fill="#C7C7C7"/>
<path d="M33.7705 207.031H44.4602V213.177H33.7705V207.031Z" fill="#C7C7C7"/>
<path d="M30.5096 212.82H41.4192V207.406H30.5096V212.82ZM41.2085 212.591H30.7386V207.608H41.1902L41.2085 212.591Z" fill="#C7C7C7"/>
<path d="M9.30423 268.027H64.2642V236.929H9.30423V268.027ZM64.0535 267.798H9.53323V237.158H64.0535V267.798Z" fill="#C7C7C7"/>
<path d="M33.7705 246.025H44.4602V252.171H33.7705V246.025Z" fill="#C7C7C7"/>
<path d="M30.5096 251.823H41.4192V246.373H30.5096V251.823ZM41.2085 251.594H30.7386V246.602H41.1902L41.2085 251.594Z" fill="#C7C7C7"/>
<path d="M9.30423 190.002H64.2642V158.922H9.30423V190.002ZM64.0535 189.773H9.53323V159.151H64.0535V189.773Z" fill="#C7C7C7"/>
<path d="M33.7705 168.027H44.4602V174.174H33.7705V168.027Z" fill="#C7C7C7"/>
<path d="M30.5096 173.826H41.4192V168.375H30.5096V173.826ZM41.2085 173.597H30.7386V168.604H41.1902L41.2085 173.597Z" fill="#C7C7C7"/>
<path d="M9.30423 151.026H64.2642V119.882H9.30423V151.026ZM64.0535 150.797H9.53323V120.148H64.0535V150.797Z" fill="#C7C7C7"/>
<path d="M33.7705 129.024H44.4602V135.171H33.7705V129.024Z" fill="#C7C7C7"/>
<path d="M30.5096 134.822H41.4192V129.372H30.5096V134.822ZM41.2085 134.593H30.7386V129.601H41.1902L41.2085 134.593Z" fill="#C7C7C7"/>
<path d="M9.41419 81.1541H64.1726V112.023H9.41419V81.1541Z" fill="#A6A6A6"/>
<path d="M14.7544 73.2489H56.4324V103.468H14.7544V73.2489Z" fill="#C7C7C7"/>
<path d="M41.7031 70.1163H56.4324V73.249H40.8604L41.7031 70.1163Z" fill="#C7C7C7"/>
<path d="M14.8642 103.459H56.5422L59.7573 75.7497H18.0794L14.8642 103.459Z" fill="#A6A6A6"/>
<path d="M45.367 72.8825H60.0872L59.7574 75.7496H44.1854L45.367 72.8825Z" fill="#A6A6A6"/>
<path d="M35.7948 81.1541H90.5532V112.023H35.7948V81.1541Z" fill="#EBEBEB"/>
<path d="M35.6848 112.142H90.6448V80.9983H35.6848V112.142ZM90.4341 111.913H35.9138V81.2639H90.4341V111.913Z" fill="#C7C7C7"/>
<path d="M60.1513 90.14H70.8411V96.2863H60.1513V90.14Z" fill="#C7C7C7"/>
<path d="M56.8718 95.9383H67.7905V90.4881H56.8718V95.9383ZM67.5615 95.7093H57.0733V90.7171H67.5615V95.7093Z" fill="#C7C7C7"/>
<path d="M9.42314 85.7798H35.6665V112.023H9.42314V85.7798Z" fill="#DBDBDB"/>
<path d="M229.727 389.168C199.536 285.575 247.438 240.596 235.3 173.626L168.999 172.256L168.205 175.93C170.175 258.698 190.949 322.023 224.401 389.608L229.727 389.168Z" fill="#FF7A57" stroke="#FF7A57" stroke-width="0.317195"/>
<path d="M246.228 388.956C224.686 283.226 273.681 243.587 267.109 175.843L199.548 172.42C183.054 263.126 213.124 318.841 240.886 388.956H246.228Z" fill="#FF7A57" stroke="#FF7A57" stroke-width="0.317195"/>
<path d="M199.548 172.42C187.24 240.109 200.862 288.313 220.105 337.556" stroke="black" stroke-width="0.317195" stroke-linejoin="round"/>
<path d="M139.082 126.577C135.573 124.163 134.089 122.246 134.276 115.513C134.378 114.389 132.476 114.314 132.04 114.734C132.113 113.942 130.31 112.878 129.736 113.725C129.229 113.072 127.969 112.005 126.989 112.963C126.495 112.288 125.296 111.24 124.415 112.384C124.395 112.41 124.379 112.437 124.365 112.467C123.564 114.199 122.358 118.42 123.794 121.805C125.208 125.136 129.691 127.12 131.909 127.747C132.014 127.776 132.106 127.837 132.173 127.922L154.108 155.678C154.123 155.697 154.139 155.714 154.156 155.731C162.757 163.799 188.802 152.235 193.846 120.385C197.149 99.5323 195.949 96.0016 191.66 84.3175C176.834 86.5195 167.598 94.376 162.527 106.062C158.873 114.48 157.381 124.886 157.517 136.596C157.521 136.99 157.093 137.24 156.754 137.039L139.082 126.577Z" fill="white"/>
<path d="M132.04 114.734C132.476 114.314 134.378 114.389 134.276 115.513C134.089 122.246 135.573 124.163 139.082 126.577L156.754 137.039C157.093 137.24 157.521 136.99 157.517 136.596C157.381 124.886 158.873 114.48 162.527 106.062M132.04 114.734C130.566 118.709 130.782 120.081 132.697 124.722M132.04 114.734C132.113 113.942 130.31 112.878 129.736 113.725M129.736 113.725C128.963 115.682 127.94 120.482 130.035 124.023M129.736 113.725C129.229 113.072 127.969 112.005 126.989 112.963M126.989 112.963C126.192 114.674 124.991 118.962 126.57 122.424M126.989 112.963C126.495 112.288 125.296 111.24 124.415 112.384C124.395 112.41 124.379 112.437 124.365 112.467C123.564 114.199 122.358 118.42 123.794 121.805C125.208 125.136 129.691 127.12 131.909 127.747C132.014 127.776 132.106 127.837 132.173 127.922L154.108 155.678C154.123 155.697 154.139 155.714 154.156 155.731C162.757 163.799 188.802 152.235 193.846 120.385M193.846 120.385C197.149 99.5323 195.949 96.0016 191.66 84.3175C176.834 86.5195 167.598 94.376 162.527 106.062M193.846 120.385C183.451 106.997 168.635 105.258 162.527 106.062" stroke="black" stroke-width="0.317195" stroke-linecap="round"/>
<path fill-rule="evenodd" clip-rule="evenodd" d="M193.846 120.384C197.148 99.5321 195.948 96.0014 191.66 84.3173C176.833 86.5193 167.598 94.3759 162.526 106.061C168.635 105.258 183.451 106.997 193.846 120.384Z" fill="#F9C034" stroke="#F9C034" stroke-width="0.317195" stroke-linecap="round"/>
<path d="M193.846 120.384C183.451 106.997 168.635 105.258 162.527 106.061" stroke="black" stroke-width="0.317195" stroke-linecap="round"/>
<path d="M134.278 115.513C134.091 122.246 135.575 124.163 139.084 126.577L157.532 137.499L164.699 142.264C164.014 148.591 163.751 152.164 163.292 158.105C159.681 158.573 156.414 157.848 154.158 155.731C154.141 155.714 154.124 155.696 154.109 155.677L132.175 127.922C132.108 127.836 132.016 127.776 131.911 127.746C129.693 127.12 125.21 125.136 123.796 121.805C122.36 118.42 123.566 114.199 124.367 112.466C124.381 112.437 124.397 112.409 124.417 112.384C125.298 111.24 126.497 112.287 126.991 112.963C127.971 112.005 129.231 113.071 129.738 113.724C130.312 112.878 132.115 113.942 132.042 114.734C132.478 114.314 134.38 114.389 134.278 115.513Z" fill="white"/>
<path d="M132.041 114.734C132.477 114.314 134.38 114.388 134.277 115.513C134.09 122.246 135.574 124.163 139.083 126.576L156.754 136.999M132.041 114.734C130.567 118.709 130.783 120.08 132.698 124.721M132.041 114.734C132.114 113.941 130.311 112.877 129.737 113.724M129.737 113.724C128.964 115.682 127.941 120.482 130.036 124.022M129.737 113.724C129.23 113.071 127.97 112.005 126.991 112.963M126.991 112.963C126.193 114.674 124.992 118.961 126.572 122.424M126.991 112.963C126.496 112.287 125.298 111.239 124.416 112.383C124.396 112.409 124.38 112.437 124.366 112.466C123.565 114.199 122.359 118.42 123.795 121.805C125.209 125.135 129.692 127.12 131.91 127.746C132.015 127.776 132.107 127.836 132.174 127.921L154.109 155.677C154.124 155.696 154.14 155.714 154.158 155.731C156.414 157.848 159.68 158.572 163.292 158.105" stroke="black" stroke-width="0.317195" stroke-linecap="round"/>
<path d="M135.276 131.848C138.693 130.714 140.062 128.351 140.32 127.31L144.239 129.631C143.445 131.284 141.112 134.766 138.131 135.461L135.276 131.848Z" fill="#2B2B2B" stroke="black" stroke-width="0.317195" stroke-linecap="round"/>
<path d="M233.533 96.7996L228.855 59.9957L210.875 62.2808L215.553 99.0847C222.215 111.198 230.449 110.151 233.533 96.7996Z" fill="white" stroke="black" stroke-width="0.314678"/>
<path d="M201.947 46.6358C197.927 59.1608 200.444 70.8036 209.529 75.096C210.3 75.4605 211.137 75.6731 211.987 75.7456C219.741 76.4074 226.532 72.7377 230.472 64.917C236.016 52.9423 236.912 47.227 232.195 39.8826L201.947 46.6358Z" fill="white" stroke="black" stroke-width="0.314678"/>
<path d="M200.768 28.723C187.025 41.3865 195.152 61.2969 223.888 49.8122C222.283 52.705 221.263 55.4673 222.656 58.9581L225.774 58.262C225.312 56.1927 225.692 54.4785 227.034 52.9115C229.144 50.449 231.092 50.8291 232.128 51.9553C233.276 53.202 233.917 57.1681 229.51 59.4194C230.606 61.3186 230.553 63.3356 230.012 65.6013C243.44 66.6141 242.102 44.5935 234.764 36.009C234.222 35.3746 233.485 34.9437 232.668 34.7709C221.61 32.432 204.526 41.1414 200.768 28.723Z" fill="#2B2B2B" stroke="black" stroke-width="0.317195"/>
<path d="M228.212 58.5294C227.564 57.0677 227.498 55.7506 227.971 54.6438M230.749 52.1133C229.359 52.7291 228.421 53.5914 227.971 54.6438M227.971 54.6438C229.18 53.5082 231.502 53.6165 230.643 56.3154" stroke="black" stroke-width="0.503485" stroke-linecap="round"/>
<path d="M220.61 55.5808C218.25 56.9683 215.889 56.9281 213.178 55.0656" stroke="black" stroke-width="0.503485" stroke-linecap="round"/>
<path d="M209.381 72.2882C211.741 70.3997 214.327 70.0711 217.583 71.6787" stroke="black" stroke-width="0.317195" stroke-linecap="round"/>
<path d="M207.123 56.0031C206.065 58.0701 204.357 59.1162 201.57 59.0169" stroke="black" stroke-width="0.503485" stroke-linecap="round"/>
<circle cx="216.172" cy="60.3505" r="1.85094" transform="rotate(13.8463 216.172 60.3505)" fill="black"/>
<circle cx="205.313" cy="61.7959" r="1.85094" transform="rotate(13.8463 205.313 61.7959)" fill="black"/>
<path d="M209.979 61.0204L208.426 66.763C208.32 67.1564 208.472 67.5857 208.838 67.7658C209.88 68.2791 210.801 68.1649 212.553 67.2227" stroke="black" stroke-width="0.314678" stroke-linecap="round"/>
<circle cx="216.86" cy="59.6942" r="0.671207" transform="rotate(-5.29358 216.86 59.6942)" fill="white"/>
<circle cx="215.986" cy="60.8913" r="0.310498" transform="rotate(-5.29358 215.986 60.8913)" fill="white"/>
<circle cx="205.77" cy="61.0336" r="0.671207" transform="rotate(-5.29358 205.77 61.0336)" fill="white"/>
<circle cx="204.896" cy="62.2308" r="0.310498" transform="rotate(-5.29358 204.896 62.2308)" fill="white"/>
<path d="M231.051 75.9271L233.692 80.4253L259.789 84.0119L265.349 85.2386C267.573 123.775 273.18 145.176 268.24 182.093C268.061 184.732 267.525 188.77 267.525 188.77C237.695 197.546 188.488 192.476 168.731 188.82C168.546 186.809 168.379 184.808 168.231 182.818C165.122 140.915 170.579 103.748 190.25 84.5418L207.196 81.1239C208.3 80.0116 209.369 79.0253 210.341 78.3253C210.989 77.8587 212.187 77.4755 212.563 78.0163C212.564 78.0135 212.564 78.0147 212.566 78.02C212.565 78.0187 212.564 78.0175 212.563 78.0163C212.547 78.1432 213.591 86.6306 213.591 86.6306L214.79 96.3003C214.869 90.041 215.942 86.0208 217.714 84.6551C224.035 82.1506 227.483 80.1721 231.051 75.9271Z" fill="#F9C034"/>
<path d="M233.692 80.4253L231.051 75.9271C227.483 80.1721 224.035 82.1506 217.714 84.6551M233.692 80.4253C231.606 86.2393 225.838 93.8235 225.069 93.1619C224.638 92.1638 224.151 91.2571 223.635 90.439M233.692 80.4253L259.789 84.0119L265.349 85.2386C267.573 123.775 273.18 145.176 268.24 182.093M217.714 84.6551C215.942 86.0208 214.869 90.041 214.79 96.3003M217.714 84.6551C218.949 85.2343 221.53 87.0975 223.635 90.439M214.79 96.3003L213.591 86.6306M214.79 96.3003C206.951 95.4105 207.075 88.1934 207.196 85.4192M214.79 96.3003C216.881 96.298 219.584 95.3432 223.635 90.439M213.591 86.6306C213.049 85.1616 211.609 84.2679 210.341 83.8756C208.572 83.3281 207.196 85.4192 207.196 85.4192M213.591 86.6306C213.591 86.6306 212.501 77.7708 212.566 78.02C212.193 77.4738 210.99 77.8576 210.341 78.3253C209.369 79.0253 208.3 80.0116 207.196 81.1239M207.196 85.4192C205.764 87.2926 204.834 90.4115 204.453 91.0631C203.776 89.6569 204.119 84.2244 207.196 81.1239M207.196 81.1239L190.25 84.5418C170.579 103.748 165.122 140.915 168.231 182.818M168.231 182.818C168.379 184.808 168.546 186.809 168.731 188.82C188.488 192.476 237.695 197.546 267.525 188.77C267.525 188.77 268.061 184.732 268.24 182.093M168.231 182.818C191.485 188.82 240.752 188.094 268.24 182.093" stroke="#F9C034" stroke-width="0.317195" stroke-linecap="round"/>
<path fill-rule="evenodd" clip-rule="evenodd" d="M259.788 84.0117L233.692 80.4251C231.606 86.2391 225.838 93.8233 225.069 93.1617C224.637 92.1636 224.15 91.2569 223.635 90.4388C219.584 95.343 216.88 96.2978 214.79 96.3001C206.95 95.4103 207.074 88.1932 207.195 85.419C206.19 86.734 205.433 88.6629 204.938 89.9211C204.728 90.4553 204.566 90.8687 204.452 91.0629C203.776 89.6567 204.118 84.2242 207.195 81.1237L190.249 84.5416C170.579 103.747 165.122 140.915 168.23 182.818C191.485 188.819 240.751 188.094 268.24 182.092C271.724 156.055 269.961 137.736 267.84 115.679C266.953 106.464 266.004 96.5951 265.348 85.2384L259.788 84.0117Z" fill="#FF7A57" stroke="#FF7A57" stroke-width="0.317195" stroke-linecap="round"/>
<mask id="mask0_314_4991" style="mask-type:alpha" maskUnits="userSpaceOnUse" x="167" y="80" width="104" height="108">
<path fill-rule="evenodd" clip-rule="evenodd" d="M259.788 84.0117L233.692 80.4251C231.606 86.2391 225.838 93.8233 225.069 93.1617C224.637 92.1636 224.15 91.2569 223.635 90.4388C219.584 95.343 216.88 96.2978 214.79 96.3001C206.95 95.4103 207.074 88.1932 207.195 85.419C206.19 86.734 205.433 88.6629 204.938 89.9211C204.728 90.4553 204.566 90.8687 204.452 91.0629C203.776 89.6567 204.118 84.2242 207.195 81.1237L190.249 84.5416C170.579 103.747 165.122 140.915 168.23 182.818C191.485 188.819 240.751 188.094 268.24 182.092C271.724 156.055 269.961 137.736 267.84 115.679C266.953 106.464 266.004 96.5951 265.348 85.2384L259.788 84.0117Z" fill="#FF7A57" stroke="#FF7A57" stroke-width="0.317195" stroke-linecap="round"/>
</mask>
<g mask="url(#mask0_314_4991)">
<rect x="150.967" y="156.973" width="126.864" height="6.92094" fill="#FF8766"/>
<rect x="150.967" y="171.046" width="126.864" height="6.92094" fill="#FF8766"/>
<rect x="150.967" y="142.9" width="126.864" height="6.92094" fill="#FF8766"/>
<rect x="150.967" y="128.828" width="126.864" height="6.92094" fill="#FF8766"/>
<rect x="150.967" y="114.755" width="126.864" height="6.92094" fill="#FF8766"/>
<rect x="150.967" y="100.682" width="126.864" height="6.92094" fill="#FF8766"/>
<rect x="150.967" y="86.6092" width="126.864" height="6.92094" fill="#FF8766"/>
</g>
<path fill-rule="evenodd" clip-rule="evenodd" d="M231.051 75.9271L233.692 80.4252C231.606 86.2393 225.838 93.8234 225.069 93.1619C224.637 92.1637 224.151 91.257 223.635 90.439C219.584 95.3431 216.881 96.2979 214.79 96.3002C214.869 90.041 215.942 86.0208 217.714 84.6551C224.035 82.1506 227.482 80.1721 231.051 75.9271ZM213.59 86.6306L214.79 96.3002C206.95 95.4105 207.074 88.1933 207.195 85.4191C206.191 86.7342 205.433 88.663 204.938 89.9213C204.729 90.4555 204.566 90.8688 204.453 91.063C203.776 89.6568 204.118 84.2244 207.195 81.1238C208.299 80.0115 209.369 79.0252 210.341 78.3253C210.988 77.8586 212.187 77.4755 212.563 78.0162L213.59 86.6306ZM212.563 78.0162C212.563 78.0135 212.595 78.2887 212.565 78.0199L212.563 78.0162Z" fill="#F9C034"/>
<path d="M217.714 84.6551C224.035 82.1506 227.482 80.1721 231.051 75.9271L233.692 80.4252C231.606 86.2393 225.838 93.8234 225.069 93.1619C224.637 92.1637 224.151 91.257 223.635 90.439M217.714 84.6551C215.942 86.0208 214.869 90.041 214.79 96.3002M217.714 84.6551C218.949 85.2342 221.53 87.0974 223.635 90.439M214.79 96.3002L213.59 86.6306M214.79 96.3002C206.95 95.4105 207.074 88.1933 207.195 85.4191M214.79 96.3002C216.881 96.2979 219.584 95.3431 223.635 90.439M213.59 86.6306C213.049 85.1615 211.608 84.2679 210.341 83.8755C208.572 83.328 207.195 85.4191 207.195 85.4191M213.59 86.6306L212.563 78.0162M207.195 85.4191C206.191 86.7342 205.433 88.663 204.938 89.9213C204.729 90.4555 204.566 90.8688 204.453 91.063C203.776 89.6568 204.118 84.2244 207.195 81.1238C208.299 80.0115 209.369 79.0252 210.341 78.3253C210.988 77.8586 212.187 77.4755 212.563 78.0162M212.563 78.0162C212.563 78.0135 212.595 78.2887 212.565 78.0199L212.563 78.0162Z" stroke="#F9C034" stroke-width="0.317195" stroke-linecap="round"/>
<path d="M207.196 85.4187C207.196 85.4187 208.573 83.3276 210.341 83.8751C211.609 84.2674 213.05 85.161 213.591 86.6301L214.791 96.2998C214.87 90.0405 215.943 86.0203 217.715 84.6546C218.95 85.2338 221.531 87.097 223.636 90.4385" stroke="black" stroke-width="0.317195" stroke-linecap="round"/>
<path d="M205.817 111.372L199.334 185.993C199.227 187.216 198.061 188.06 196.866 187.779L132.883 172.712C132.012 172.507 131.11 172.901 130.669 173.68L122.466 188.168C122.033 188.932 121.155 189.328 120.297 189.146L83.1917 181.301C82.1491 181.081 81.4587 180.086 81.6166 179.032L84.7498 158.128L50.103 150.247C48.7107 149.931 48.081 148.306 48.8962 147.134L96.7002 78.395L204.366 109.261C205.292 109.527 205.901 110.412 205.817 111.372Z" fill="#E6E6E6"/>
<path d="M47.1914 149.585L96.7002 78.395L84.7498 158.128L47.1914 149.585Z" fill="#999999"/>
<path d="M129.007 150.861C141.583 142.977 157.922 144.162 166.609 159.982" stroke="#2B2B2B" stroke-width="2.01394" stroke-linecap="round"/>
<path d="M119.3 106.55L126.889 118.93M117.861 117.346L129.449 108.453" stroke="#2B2B2B" stroke-width="2.01394" stroke-linecap="round"/>
<path d="M169.727 118.651L177.316 131.03M168.288 129.446L179.876 120.553" stroke="#2B2B2B" stroke-width="2.01394" stroke-linecap="round"/>
<path d="M255.549 151.449L247.135 129.021C240.872 113.088 237.737 93.3634 254.931 83.4824C255.02 83.4313 255.128 83.408 255.23 83.4173C282.629 85.9194 290.382 97.9515 290.382 134.429C290.382 146.106 286.246 162.641 275.858 172.819C269.504 179.044 259.665 178.808 251.481 175.32C232.447 167.207 230.507 160.075 211.269 142.017C211.094 141.852 210.82 141.828 210.621 141.964C205.513 145.443 196.666 146.924 192.935 144.575C191.932 143.943 192.921 142.989 193.404 142.668C192.479 142.415 192.328 141.844 192.219 141.726C191.64 141.096 192.439 140.117 192.68 139.723C191.455 138.913 192.652 137.774 193.404 137.305C191.971 136.552 192.144 134.963 192.535 133.958C192.613 133.758 192.826 133.65 193.039 133.678L193.148 133.693C199.187 134.495 201.545 134.808 206.538 132.991C206.806 132.894 206.937 132.59 206.818 132.332C206.171 130.927 205.666 130.581 204.216 129.725C204.105 129.66 204.022 129.554 203.989 129.429C203.649 128.114 203.613 126.542 205.693 127.259C208.345 128.174 211.243 132.358 211.598 134.189C211.627 134.34 211.707 134.481 211.835 134.568C225.977 144.132 236.264 149.14 253.793 153.433C254.964 153.719 255.973 152.577 255.549 151.449Z" fill="white"/>
<path d="M247.135 129.021C255.33 129.021 286.52 126.026 290.382 134.429M247.135 129.021L255.549 151.449C255.973 152.577 254.964 153.719 253.793 153.433C236.264 149.14 225.977 144.132 211.835 134.568C211.707 134.481 211.627 134.34 211.598 134.189C211.243 132.358 208.345 128.174 205.693 127.259C203.613 126.542 203.649 128.114 203.989 129.429C204.022 129.554 204.105 129.66 204.216 129.725C205.666 130.581 206.171 130.927 206.818 132.332C206.937 132.59 206.806 132.894 206.538 132.991C201.515 134.819 199.159 134.491 193.039 133.678C192.826 133.65 192.613 133.758 192.535 133.958C192.144 134.963 191.971 136.552 193.404 137.305M247.135 129.021C240.872 113.088 237.737 93.3634 254.931 83.4824C255.02 83.4313 255.128 83.408 255.23 83.4173C282.629 85.9194 290.382 97.9515 290.382 134.429M290.382 134.429C290.382 146.106 286.246 162.641 275.858 172.819C269.504 179.044 259.665 178.808 251.481 175.32C232.447 167.207 230.507 160.075 211.269 142.017C211.094 141.852 210.82 141.828 210.621 141.964C205.513 145.443 196.666 146.924 192.935 144.575C191.932 143.943 192.921 142.989 193.404 142.668M205.2 136.693C202.858 137.503 197.364 138.314 194.211 137.594C193.898 137.522 193.631 137.424 193.404 137.305M193.404 137.305C192.652 137.774 191.455 138.913 192.68 139.723M192.68 139.723C194.211 140.735 202.577 140.503 205.2 139.048M192.68 139.723C192.439 140.117 191.64 141.096 192.219 141.726C192.328 141.844 192.479 142.415 193.404 142.668M205.913 141.372C201.869 143.188 195.466 143.232 193.404 142.668" stroke="black" stroke-width="0.317195" stroke-linecap="round"/>
<path d="M290.382 134.429C286.52 126.026 255.33 129.021 247.135 129.021C240.855 113.045 237.72 93.2573 255.07 83.4029C282.599 85.8727 290.382 97.8806 290.382 134.429Z" fill="#F9C034" stroke="#F9C034" stroke-width="0.317195" stroke-linecap="round"/>
<path d="M247.134 129.021C255.33 129.021 286.52 126.026 290.381 134.429" stroke="black" stroke-width="0.317195" stroke-linecap="round"/>
<path d="M212.395 143.061C211.234 139.502 213.14 136.998 213.838 135.968L216.771 137.843C215.001 140.034 214.159 141.132 214.783 145.362C213.96 144.517 213.206 143.81 212.395 143.061Z" fill="#2B2B2B" stroke="black" stroke-width="0.317195" stroke-linecap="round"/>
<circle cx="213.582" cy="139.666" r="2.71402" fill="#D9D9D9" stroke="black" stroke-width="0.317195"/>
<path d="M143.303 91.7736C146.454 93.1217 147.617 95.0131 148.092 100.989C148.11 102.118 150.01 101.989 150.398 101.525C150.411 102.32 152.317 103.185 152.797 102.282C153.371 102.877 154.738 103.803 155.609 102.745C156.173 103.364 157.477 104.278 158.231 103.046C158.248 103.018 158.261 102.989 158.272 102.958C158.769 101.487 159.356 98.3511 158.595 95.5036C163.132 95.3403 165.314 92.6045 162.979 91.739C162.836 91.6862 162.68 91.7182 162.544 91.7867C160.995 92.5688 157.145 91.8648 155.609 91.2C153.89 89.9465 151.772 89.3199 149.646 89.2426C146.878 89.1421 145.22 89.9172 143.284 90.7656C142.857 90.9527 142.874 91.5903 143.303 91.7736Z" fill="white"/>
<path d="M150.398 101.525C150.01 101.989 148.11 102.118 148.092 100.989C147.617 95.0131 146.454 93.1217 143.303 91.7736C142.874 91.5903 142.857 90.9527 143.284 90.7656C145.22 89.9172 146.878 89.1421 149.646 89.2426C151.772 89.3199 153.89 89.9465 155.609 91.2V91.2M150.398 101.525C151.439 97.4146 151.078 96.0741 148.677 91.6644M150.398 101.525C150.411 102.32 152.317 103.185 152.797 102.282M152.797 102.282C153.357 100.253 153.86 95.3708 151.399 92.0749M152.797 102.282C153.371 102.877 154.738 103.803 155.609 102.745M155.609 102.745C156.22 100.959 156.955 96.5674 155.014 93.2936M155.609 102.745C156.173 103.364 157.477 104.278 158.231 103.046C158.248 103.018 158.261 102.989 158.272 102.958C158.769 101.487 159.356 98.3511 158.595 95.5036M155.609 91.2C156.52 91.8638 157.312 92.6629 157.841 93.6125C158.175 94.2119 158.421 94.8502 158.595 95.5036M155.609 91.2C157.145 91.8648 160.995 92.5688 162.544 91.7867C162.68 91.7182 162.836 91.6862 162.979 91.739C165.314 92.6045 163.132 95.3403 158.595 95.5036" stroke="black" stroke-width="0.503485" stroke-linecap="round"/>
<path d="M89.4202 57.4272C86.2164 57.271 85.7619 52.1756 85.9138 48.136L86.8157 47.6791C89.992 50.7991 91.2661 56.4121 89.4202 57.4272Z" fill="#666666"/>
<path d="M87.5169 49.2925C88.7851 49.0637 89.3274 47.7899 88.6062 46.5074" stroke="#2B2B2B" stroke-width="0.503485" stroke-linecap="round" stroke-linejoin="round"/>
<path d="M86.4067 49.5052C85.2779 50.1258 84.0519 49.4785 83.801 48.0294" stroke="#2B2B2B" stroke-width="0.503485" stroke-linecap="round" stroke-linejoin="round"/>
<path d="M84.6956 56.6004C86.8326 56.5359 87.8921 52.6579 86.647 48.2077C86.3988 47.6764 85.9203 47.8899 85.6459 48.3722C83.9262 51.4728 81.9392 56.6837 84.6956 56.6004Z" fill="#E6E6E6"/>
<path d="M92.4489 54.4769C90.5494 55.4581 87.7402 52.5824 86.6678 48.0874C86.6269 47.5025 87.1488 47.4567 87.6228 47.7451C90.6317 49.6207 94.899 53.2113 92.4489 54.4769Z" fill="#E6E6E6"/>
<circle cx="86.15" cy="46.811" r="1.88215" transform="rotate(8.49711 86.15 46.811)" fill="#666666"/>
<path d="M90.0141 58.7629C94.7149 81.3752 54.3211 90.0251 49.9983 118.968C46.3768 145.284 76.6684 147.288 88.2435 124.682" stroke="#2B2B2B" stroke-width="0.503485" stroke-linecap="round" stroke-linejoin="round" stroke-dasharray="1.01 1.01"/>
<path d="M139.679 57.3186C155.362 57.3186 168.075 44.6055 168.075 28.9231C168.075 13.2407 155.362 0.527649 139.679 0.527649C123.997 0.527649 111.284 13.2407 111.284 28.9231C111.284 44.6055 123.997 57.3186 139.679 57.3186Z" fill="#EBEBEB"/>
<path d="M141.004 56.5614C155.955 56.5614 168.075 44.4416 168.075 29.491C168.075 14.5405 155.955 2.42068 141.004 2.42068C126.054 2.42068 113.934 14.5405 113.934 29.491C113.934 44.4416 126.054 56.5614 141.004 56.5614Z" fill="#DBDBDB"/>
<path d="M141.005 54.8576C155.014 54.8576 166.371 43.5006 166.371 29.491C166.371 15.4814 155.014 4.12439 141.005 4.12439C126.995 4.12439 115.638 15.4814 115.638 29.491C115.638 43.5006 126.995 54.8576 141.005 54.8576Z" fill="white"/>
<path opacity="0.5" d="M165.803 24.2261C154.253 31.2354 135.26 42.7008 124.652 48.9892C121.654 46.4609 119.282 43.2737 117.72 39.6767L152.781 7.1532C156.066 8.87669 158.934 11.2981 161.184 14.2475C163.434 17.1969 165.01 20.6028 165.803 24.2261Z" fill="#EBEBEB"/>
<path opacity="0.5" d="M166.371 30.4376C166.277 33.2457 165.712 36.0183 164.699 38.6409L133.083 53.5326C131.701 53.0769 130.361 52.5033 129.078 51.8181C138.629 46.326 156.109 36.3185 166.371 30.4376Z" fill="#EBEBEB"/>
<path d="M141.194 6.01746H140.626V9.80352H141.194V6.01746Z" fill="#C7C7C7"/>
<path d="M129.393 9.01366L128.969 9.25891L130.891 12.588L131.315 12.3427L129.393 9.01366Z" fill="#C7C7C7"/>
<path d="M120.683 17.5371L120.437 17.9619L123.766 19.884L124.012 19.4592L120.683 17.5371Z" fill="#C7C7C7"/>
<path d="M121.317 29.3017H117.342V29.6803H121.317V29.3017Z" fill="#C7C7C7"/>
<path d="M123.79 39.1537L120.461 41.0758L120.707 41.5006L124.036 39.5785L123.79 39.1537Z" fill="#C7C7C7"/>
<path d="M130.922 46.4465L129.001 49.7765L129.426 50.0216L131.346 46.6915L130.922 46.4465Z" fill="#C7C7C7"/>
<path d="M141.194 49.1786H140.626V52.9646H141.194V49.1786Z" fill="#C7C7C7"/>
<path d="M150.997 46.4331L150.572 46.6784L152.494 50.0075L152.919 49.7622L150.997 46.4331Z" fill="#C7C7C7"/>
<path d="M158.098 39.1218L157.852 39.5466L161.181 41.4686L161.427 41.0438L158.098 39.1218Z" fill="#C7C7C7"/>
<path d="M164.478 29.3017H160.692V29.6803H164.478V29.3017Z" fill="#C7C7C7"/>
<path d="M161.19 17.5605L157.861 19.4825L158.107 19.9073L161.436 17.9853L161.19 17.5605Z" fill="#C7C7C7"/>
<path d="M152.485 9.02774L150.565 12.3578L150.99 12.6029L152.91 9.27278L152.485 9.02774Z" fill="#C7C7C7"/>
<path d="M141.289 7.73116L142.14 31.1948L139.679 31.1648L140.623 7.72116L141.289 7.73116Z" fill="#C7C7C7"/>
<path d="M155.959 21.351L140.079 31.3841L138.922 29.2818L155.647 20.7831L155.959 21.351Z" fill="#A6A6A6"/>
<path d="M141.762 29.4909C141.762 29.6407 141.712 29.7871 141.618 29.9116C141.524 30.0362 141.391 30.1332 141.236 30.1905C141.08 30.2478 140.909 30.2628 140.744 30.2336C140.578 30.2044 140.427 30.1323 140.307 30.0264C140.188 29.9205 140.107 29.7856 140.074 29.6387C140.041 29.4918 140.058 29.3395 140.123 29.2012C140.187 29.0628 140.296 28.9445 140.436 28.8613C140.577 28.7781 140.741 28.7337 140.91 28.7337C141.136 28.7337 141.352 28.8135 141.512 28.9555C141.672 29.0975 141.762 29.2901 141.762 29.4909Z" fill="#C7C7C7"/>
</svg>
